REM MD5 89e3756aaf57636d6216344beb9a81a9
FILE "Yuukyuu Gensoukyoku (Japan) (Genteiban).bin" BINARY
  TRACK 01 MODE2/2352
    INDEX 01 00:00:00
  TRACK 02 AUDIO
    INDEX 00 54:00:41
    INDEX 01 54:02:41
  TRACK 03 AUDIO
    INDEX 00 56:47:42
    INDEX 01 56:49:42
  TRACK 04 AUDIO
    INDEX 00 58:51:43
    INDEX 01 58:53:43
  TRACK 05 AUDIO
    INDEX 00 60:55:44
    INDEX 01 60:57:44
REM LEADOUT 65:30:45
